<svg id="visual" viewBox="0 0 960 540" width="960" height="540" xmlns="http://www.w3.org/2000/svg" xmlns:xlink="http://www.w3.org/1999/xlink" version="1.1"><rect x="0" y="0" width="960" height="540" fill="#a0d0f6"></rect><defs><linearGradient id="grad1_0" x1="43.8%" y1="0%" x2="100%" y2="100%"><stop offset="14.444444444444446%" stop-color="#2100f6" stop-opacity="1"></stop><stop offset="85.55555555555554%" stop-color="#2100f6" stop-opacity="1"></stop></linearGradient></defs><defs><linearGradient id="grad1_1" x1="43.8%" y1="0%" x2="100%" y2="100%"><stop offset="14.444444444444446%" stop-color="#2100f6" stop-opacity="1"></stop><stop offset="85.55555555555554%" stop-color="#0043ff" stop-opacity="1"></stop></linearGradient></defs><defs><linearGradient id="grad1_2" x1="43.8%" y1="0%" x2="100%" y2="100%"><stop offset="14.444444444444446%" stop-color="#0063ff" stop-opacity="1"></stop><stop offset="85.55555555555554%" stop-color="#0043ff" stop-opacity="1"></stop></linearGradient></defs><defs><linearGradient id="grad1_3" x1="43.8%" y1="0%" x2="100%" y2="100%"><stop offset="14.444444444444446%" stop-color="#0063ff" stop-opacity="1"></stop><stop offset="85.55555555555554%" stop-color="#007dff" stop-opacity="1"></stop></linearGradient></defs><defs><linearGradient id="grad1_4" x1="43.8%" y1="0%" x2="100%" y2="100%"><stop offset="14.444444444444446%" stop-color="#0094ff" stop-opacity="1"></stop><stop offset="85.55555555555554%" stop-color="#007dff" stop-opacity="1"></stop></linearGradient></defs><defs><linearGradient id="grad1_5" x1="43.8%" y1="0%" x2="100%" y2="100%"><stop offset="14.444444444444446%" stop-color="#0094ff" stop-opacity="1"></stop><stop offset="85.55555555555554%" stop-color="#36a9ff" stop-opacity="1"></stop></linearGradient></defs><defs><linearGradient id="grad1_6" x1="43.8%" y1="0%" x2="100%" y2="100%"><stop offset="14.444444444444446%" stop-color="#71bdfe" stop-opacity="1"></stop><stop offset="85.55555555555554%" stop-color="#36a9ff" stop-opacity="1"></stop></linearGradient></defs><defs><linearGradient id="grad1_7" x1="43.8%" y1="0%" x2="100%" y2="100%"><stop offset="14.444444444444446%" stop-color="#71bdfe" stop-opacity="1"></stop><stop offset="85.55555555555554%" stop-color="#a0d0f6" stop-opacity="1"></stop></linearGradient></defs><defs><linearGradient id="grad2_0" x1="0%" y1="0%" x2="56.3%" y2="100%"><stop offset="14.444444444444446%" stop-color="#2100f6" stop-opacity="1"></stop><stop offset="85.55555555555554%" stop-color="#2100f6" stop-opacity="1"></stop></linearGradient></defs><defs><linearGradient id="grad2_1" x1="0%" y1="0%" x2="56.3%" y2="100%"><stop offset="14.444444444444446%" stop-color="#0043ff" stop-opacity="1"></stop><stop offset="85.55555555555554%" stop-color="#2100f6" stop-opacity="1"></stop></linearGradient></defs><defs><linearGradient id="grad2_2" x1="0%" y1="0%" x2="56.3%" y2="100%"><stop offset="14.444444444444446%" stop-color="#0043ff" stop-opacity="1"></stop><stop offset="85.55555555555554%" stop-color="#0063ff" stop-opacity="1"></stop></linearGradient></defs><defs><linearGradient id="grad2_3" x1="0%" y1="0%" x2="56.3%" y2="100%"><stop offset="14.444444444444446%" stop-color="#007dff" stop-opacity="1"></stop><stop offset="85.55555555555554%" stop-color="#0063ff" stop-opacity="1"></stop></linearGradient></defs><defs><linearGradient id="grad2_4" x1="0%" y1="0%" x2="56.3%" y2="100%"><stop offset="14.444444444444446%" stop-color="#007dff" stop-opacity="1"></stop><stop offset="85.55555555555554%" stop-color="#0094ff" stop-opacity="1"></stop></linearGradient></defs><defs><linearGradient id="grad2_5" x1="0%" y1="0%" x2="56.3%" y2="100%"><stop offset="14.444444444444446%" stop-color="#36a9ff" stop-opacity="1"></stop><stop offset="85.55555555555554%" stop-color="#0094ff" stop-opacity="1"></stop></linearGradient></defs><defs><linearGradient id="grad2_6" x1="0%" y1="0%" x2="56.3%" y2="100%"><stop offset="14.444444444444446%" stop-color="#36a9ff" stop-opacity="1"></stop><stop offset="85.55555555555554%" stop-color="#71bdfe" stop-opacity="1"></stop></linearGradient></defs><defs><linearGradient id="grad2_7" x1="0%" y1="0%" x2="56.3%" y2="100%"><stop offset="14.444444444444446%" stop-color="#a0d0f6" stop-opacity="1"></stop><stop offset="85.55555555555554%" stop-color="#71bdfe" stop-opacity="1"></stop></linearGradient></defs><g transform="translate(960, 0)"><path d="M0 486C-20.3 478.1 -40.5 470.2 -61.6 468C-82.7 465.7 -104.6 469.1 -124.2 463.6C-143.8 458.2 -161.1 443.8 -180.2 435.1C-199.4 426.5 -220.4 423.7 -241 417.4C-261.6 411.2 -282 401.6 -295.9 385.6C-309.8 369.5 -317.2 347 -331.6 331.6C-346 316.2 -367.4 308 -383.2 294C-399 280.1 -409.3 260.5 -416.6 240.5C-423.8 220.5 -427.9 199.9 -437 181C-446.1 162.1 -460.3 144.8 -467.5 125.3C-474.7 105.8 -475 84 -476.9 62.8C-478.8 41.5 -482.4 20.8 -486 0L0 0Z" fill="#89c7fa"></path><path d="M0 425.3C-17.7 418.3 -35.5 411.4 -53.9 409.5C-72.4 407.5 -91.6 410.5 -108.7 405.7C-125.9 400.9 -141 388.3 -157.7 380.8C-174.5 373.2 -192.8 370.7 -210.9 365.2C-228.9 359.8 -246.7 351.4 -258.9 337.4C-271 323.3 -277.6 303.6 -290.2 290.2C-302.8 276.7 -321.4 269.5 -335.3 257.3C-349.1 245.1 -358.2 228 -364.5 210.4C-370.8 192.9 -374.4 174.9 -382.4 158.4C-390.4 141.8 -402.8 126.7 -409.1 109.6C-415.4 92.5 -415.6 73.5 -417.3 54.9C-419 36.3 -422.1 18.2 -425.2 0L0 0Z" fill="#56b4ff"></path><path d="M0 364.5C-15.2 358.6 -30.4 352.7 -46.2 351C-62 349.3 -78.5 351.8 -93.2 347.7C-107.9 343.6 -120.8 332.8 -135.2 326.4C-149.5 319.9 -165.3 317.7 -180.7 313.1C-196.2 308.4 -211.5 301.2 -221.9 289.2C-232.3 277.1 -237.9 260.3 -248.7 248.7C-259.5 237.2 -275.5 231 -287.4 220.5C-299.3 210.1 -307 195.4 -312.4 180.4C-317.8 165.3 -320.9 149.9 -327.7 135.8C-334.6 121.6 -345.2 108.6 -350.6 94C-356 79.3 -356.2 63 -357.7 47.1C-359.1 31.2 -361.8 15.6 -364.5 0L0 0Z" fill="#009fff"></path><path d="M0 303.8C-12.7 298.8 -25.3 293.9 -38.5 292.5C-51.7 291.1 -65.4 293.2 -77.6 289.8C-89.9 286.3 -100.7 277.4 -112.7 272C-124.6 266.6 -137.7 264.8 -150.6 260.9C-163.5 257 -176.2 251 -184.9 241C-193.6 231 -198.3 216.9 -207.3 207.3C-216.3 197.7 -229.6 192.5 -239.5 183.8C-249.4 175.1 -255.8 162.8 -260.3 150.3C-264.9 137.8 -267.4 125 -273.1 113.1C-278.8 101.3 -287.7 90.5 -292.2 78.3C-296.7 66.1 -296.9 52.5 -298.1 39.2C-299.3 26 -301.5 13 -303.7 0L0 0Z" fill="#0088ff"></path><path d="M0 243C-10.1 239.1 -20.3 235.1 -30.8 234C-41.4 232.9 -52.3 234.6 -62.1 231.8C-71.9 229.1 -80.6 221.9 -90.1 217.6C-99.7 213.3 -110.2 211.8 -120.5 208.7C-130.8 205.6 -141 200.8 -147.9 192.8C-154.9 184.8 -158.6 173.5 -165.8 165.8C-173 158.1 -183.7 154 -191.6 147C-199.5 140.1 -204.7 130.3 -208.3 120.3C-211.9 110.2 -213.9 100 -218.5 90.5C-223.1 81 -230.1 72.4 -233.8 62.6C-237.4 52.9 -237.5 42 -238.4 31.4C-239.4 20.8 -241.2 10.4 -243 0L0 0Z" fill="#0070ff"></path><path d="M0 182.3C-7.6 179.3 -15.2 176.3 -23.1 175.5C-31 174.6 -39.2 175.9 -46.6 173.9C-53.9 171.8 -60.4 166.4 -67.6 163.2C-74.8 159.9 -82.6 158.9 -90.4 156.5C-98.1 154.2 -105.7 150.6 -110.9 144.6C-116.2 138.6 -119 130.1 -124.4 124.4C-129.8 118.6 -137.8 115.5 -143.7 110.3C-149.6 105 -153.5 97.7 -156.2 90.2C-158.9 82.7 -160.4 75 -163.9 67.9C-167.3 60.8 -172.6 54.3 -175.3 47C-178 39.7 -178.1 31.5 -178.8 23.5C-179.6 15.6 -180.9 7.8 -182.2 0L0 0Z" fill="#0054ff"></path><path d="M0 121.5C-5.1 119.5 -10.1 117.6 -15.4 117C-20.7 116.4 -26.2 117.3 -31.1 115.9C-36 114.5 -40.3 110.9 -45.1 108.8C-49.8 106.6 -55.1 105.9 -60.2 104.4C-65.4 102.8 -70.5 100.4 -74 96.4C-77.4 92.4 -79.3 86.8 -82.9 82.9C-86.5 79.1 -91.8 77 -95.8 73.5C-99.8 70 -102.3 65.1 -104.1 60.1C-105.9 55.1 -107 50 -109.2 45.3C-111.5 40.5 -115.1 36.2 -116.9 31.3C-118.7 26.4 -118.7 21 -119.2 15.7C-119.7 10.4 -120.6 5.2 -121.5 0L0 0Z" fill="#002dfe"></path><path d="M0 60.8C-2.5 59.8 -5.1 58.8 -7.7 58.5C-10.3 58.2 -13.1 58.6 -15.5 58C-18 57.3 -20.1 55.5 -22.5 54.4C-24.9 53.3 -27.5 53 -30.1 52.2C-32.7 51.4 -35.2 50.2 -37 48.2C-38.7 46.2 -39.7 43.4 -41.5 41.5C-43.3 39.5 -45.9 38.5 -47.9 36.8C-49.9 35 -51.2 32.6 -52.1 30.1C-53 27.6 -53.5 25 -54.6 22.6C-55.8 20.3 -57.5 18.1 -58.4 15.7C-59.3 13.2 -59.4 10.5 -59.6 7.8C-59.9 5.2 -60.3 2.6 -60.7 0L0 0Z" fill="#2100f6"></path></g><g transform="translate(0, 540)"><path d="M0 -486C20.3 -479 40.7 -472 61.9 -469.9C83.1 -467.9 105.2 -470.8 124.5 -464.6C143.8 -458.4 160.3 -443.2 180.6 -436.1C200.9 -428.9 225 -429.8 241.5 -418.3C258 -406.8 267 -383 283.7 -369.7C300.3 -356.4 324.6 -353.5 342.2 -342.2C359.9 -331 370.8 -311.5 382.4 -293.4C394 -275.4 406.2 -258.8 418.3 -241.5C430.4 -224.2 442.2 -206 449 -186C455.8 -165.9 457.4 -144 458.8 -122.9C460.2 -101.9 461.5 -81.7 466 -61.3C470.5 -41 478.2 -20.5 486 0L0 0Z" fill="#89c7fa"></path><path d="M0 -425.2C17.8 -419.1 35.6 -413 54.1 -411.2C72.7 -409.4 92 -411.9 108.9 -406.5C125.8 -401.1 140.3 -387.8 158 -381.6C175.8 -375.3 196.8 -376 211.3 -366C225.8 -356 233.7 -335.2 248.2 -323.5C262.8 -311.8 284 -309.3 299.5 -299.5C314.9 -289.6 324.5 -272.5 334.6 -256.7C344.7 -241 355.4 -226.5 366 -211.3C376.6 -196.1 387 -180.3 392.9 -162.7C398.8 -145.2 400.2 -126 401.5 -107.6C402.7 -89.1 403.8 -71.5 407.7 -53.7C411.7 -35.9 418.5 -17.9 425.3 0L0 0Z" fill="#56b4ff"></path><path d="M0 -364.5C15.2 -359.3 30.5 -354 46.4 -352.5C62.3 -350.9 78.9 -353.1 93.4 -348.5C107.9 -343.8 120.3 -332.4 135.5 -327.1C150.7 -321.7 168.7 -322.3 181.1 -313.7C193.5 -305.1 200.3 -287.3 212.8 -277.3C225.2 -267.3 243.5 -265.1 256.7 -256.7C269.9 -248.3 278.1 -233.6 286.8 -220.1C295.5 -206.5 304.7 -194.1 313.7 -181.1C322.8 -168.1 331.7 -154.5 336.8 -139.5C341.8 -124.5 343 -108 344.1 -92.2C345.2 -76.4 346.1 -61.3 349.5 -46C352.9 -30.8 358.7 -15.4 364.5 0L0 0Z" fill="#009fff"></path><path d="M0 -303.7C12.7 -299.4 25.4 -295 38.7 -293.7C51.9 -292.4 65.7 -294.2 77.8 -290.4C89.9 -286.5 100.2 -277 112.9 -272.5C125.6 -268.1 140.6 -268.6 150.9 -261.4C161.3 -254.3 166.9 -239.4 177.3 -231.1C187.7 -222.7 202.9 -220.9 213.9 -213.9C224.9 -206.9 231.8 -194.7 239 -183.4C246.2 -172.1 253.9 -161.8 261.4 -150.9C269 -140.1 276.4 -128.8 280.6 -116.2C284.9 -103.7 285.9 -90 286.8 -76.8C287.7 -63.7 288.4 -51.1 291.2 -38.3C294 -25.6 298.9 -12.8 303.8 0L0 0Z" fill="#0088ff"></path><path d="M0 -243C10.2 -239.5 20.3 -236 30.9 -235C41.5 -233.9 52.6 -235.4 62.2 -232.3C71.9 -229.2 80.2 -221.6 90.3 -218C100.5 -214.4 112.5 -214.9 120.7 -209.1C129 -203.4 133.5 -191.5 141.8 -184.9C150.2 -178.2 162.3 -176.7 171.1 -171.1C179.9 -165.5 185.4 -155.7 191.2 -146.7C197 -137.7 203.1 -129.4 209.1 -120.8C215.2 -112.1 221.1 -103 224.5 -93C227.9 -83 228.7 -72 229.4 -61.5C230.1 -50.9 230.7 -40.8 233 -30.7C235.2 -20.5 239.1 -10.3 243 0L0 0Z" fill="#0070ff"></path><path d="M0 -182.2C7.6 -179.6 15.2 -177 23.2 -176.2C31.2 -175.5 39.4 -176.5 46.7 -174.2C53.9 -171.9 60.1 -166.2 67.7 -163.5C75.3 -160.8 84.4 -161.2 90.6 -156.9C96.8 -152.6 100.1 -143.6 106.4 -138.6C112.6 -133.6 121.7 -132.5 128.3 -128.3C134.9 -124.1 139.1 -116.8 143.4 -110C147.7 -103.3 152.3 -97.1 156.9 -90.6C161.4 -84.1 165.8 -77.3 168.4 -69.7C170.9 -62.2 171.5 -54 172.1 -46.1C172.6 -38.2 173.1 -30.6 174.7 -23C176.4 -15.4 179.3 -7.7 182.3 0L0 0Z" fill="#0054ff"></path><path d="M0 -121.5C5.1 -119.8 10.2 -118 15.5 -117.5C20.8 -117 26.3 -117.7 31.1 -116.2C36 -114.6 40.1 -110.8 45.2 -109C50.2 -107.2 56.2 -107.4 60.4 -104.6C64.5 -101.7 66.8 -95.8 70.9 -92.4C75.1 -89.1 81.2 -88.4 85.6 -85.6C90 -82.8 92.7 -77.9 95.6 -73.4C98.5 -68.8 101.6 -64.7 104.6 -60.4C107.6 -56 110.6 -51.5 112.3 -46.5C113.9 -41.5 114.3 -36 114.7 -30.7C115.1 -25.5 115.4 -20.4 116.5 -15.3C117.6 -10.3 119.6 -5.1 121.5 0L0 0Z" fill="#002dfe"></path><path d="M0 -60.7C2.5 -59.9 5.1 -59 7.7 -58.7C10.4 -58.5 13.1 -58.8 15.6 -58.1C18 -57.3 20 -55.4 22.6 -54.5C25.1 -53.6 28.1 -53.7 30.2 -52.3C32.3 -50.9 33.4 -47.9 35.5 -46.2C37.5 -44.5 40.6 -44.2 42.8 -42.8C45 -41.4 46.4 -38.9 47.8 -36.7C49.2 -34.4 50.8 -32.4 52.3 -30.2C53.8 -28 55.3 -25.8 56.1 -23.2C57 -20.7 57.2 -18 57.4 -15.4C57.5 -12.7 57.7 -10.2 58.2 -7.7C58.8 -5.1 59.8 -2.6 60.8 0L0 0Z" fill="#2100f6"></path></g></svg>